<svg version="1.1" id="svg1567" xmlns:svg="http://www.w3.org/2000/svg" xmlns="http://www.w3.org/2000/svg" x="0" y="0" viewBox="0 0 32 32" xml:space="preserve">
  <path d="M29.2 13.3L29.2 13.3l-5.7-5.7 -1.9-6.4 -3.5 1 -0.5-0.5c-0.4-0.4-1-0.7-1.6-0.7s-1.2 0.2-1.6 0.7l-2.1 2.1L7.2 5.3l0.3 1 13.5-3.8 4.2 14.3 -0.8 0.8L20.3 3.7 5.8 7.8l0.3 1 13.5-3.8 3.9 13.5 -0.8 0.8L18.9 6.1 4.4 10.2l0.3 1.2 -2.1 2.1v17.5h26.7L29.2 13.3 29.2 13.3zM15.1 2.5c0.5-0.5 1.3-0.5 1.8 0l0 0 -2.6 0.7L15.1 2.5zM24.1 9.8l4 4 -2.2 2.2L24.1 9.8zM18.2 7.3L21.9 20l-1.4 1.4 -2.6-2.6c0 0 0-0.1 0-0.1 -0.5-1.6-2.1-2.5-3.7-2s-2.5 2.1-2.1 3.7c0 0.1 0.1 0.2 0.1 0.3l-0.7 0.7 -3.9-3.9 -2-6.7L18.2 7.3zM13 19.9c-0.2-1 0.4-2 1.4-2.2 0.6-0.2 1.1-0.1 1.6 0.2 0 0 0 0-0.1 0 -0.6 0-1.2 0.2-1.6 0.7L13 19.9zM4.4 13.2l0.7-0.7 1 3.6 -2.3-2.3L4.4 13.2zM3.7 15.2l7 7h0l-0.1 0.1 0 0 -6.9 6.9V15.2zM4.6 29.9l0.6-0.6h0l10-10c0.5-0.5 1.3-0.5 1.8 0l10.5 10.5H4.6zM28.3 15.6v13.6l-7-7 7-7V15.6z"/>
  <polygon points="8.9 14.6 8 11.8 7.1 12 7.9 14.9 "/>
  <polygon points="18.5 11.9 17.7 9 16.7 9.3 17.5 12.2 "/>
</svg>
