<?xml version="1.0" encoding="utf-8"?>
<!-- Generator: Adobe Illustrator 24.1.3, SVG Export Plug-In . SVG Version: 6.00 Build 0)  -->
<svg version="1.1"
	 id="svg1567" xmlns:cc="http://creativecommons.org/ns#" xmlns:dc="http://purl.org/dc/elements/1.1/" xmlns:inkscape="http://www.inkscape.org/namespaces/inkscape" xmlns:rdf="http://www.w3.org/1999/02/22-rdf-syntax-ns#" xmlns:sodipodi="http://sodipodi.sourceforge.net/DTD/sodipodi-0.dtd" xmlns:svg="http://www.w3.org/2000/svg"
	 xmlns="http://www.w3.org/2000/svg" xmlns:xlink="http://www.w3.org/1999/xlink" x="0px" y="0px" viewBox="0 0 32 32"
	 style="enable-background:new 0 0 32 32;" xml:space="preserve">
<g>
	<path d="M29.2,13.3L29.2,13.3l-5.7-5.7l-1.9-6.4l-3.5,1l-0.5-0.5c-0.4-0.4-1-0.7-1.6-0.7s-1.2,0.2-1.6,0.7l-2.1,2.1L7.2,5.3l0.3,1
		l13.5-3.8l4.2,14.3l-0.8,0.8L20.3,3.7L5.8,7.8l0.3,1l13.5-3.8l3.9,13.5l-0.8,0.8L18.9,6.1L4.4,10.2l0.3,1.2l-2.1,2.1v17.5h26.7
		L29.2,13.3L29.2,13.3z M15.1,2.5c0.5-0.5,1.3-0.5,1.8,0l0,0l-2.6,0.7L15.1,2.5z M24.1,9.8l4,4l-2.2,2.2L24.1,9.8z M18.2,7.3
		L21.9,20l-1.4,1.4l-2.6-2.6c0,0,0-0.1,0-0.1c-0.5-1.6-2.1-2.5-3.7-2s-2.5,2.1-2.1,3.7c0,0.1,0.1,0.2,0.1,0.3l-0.7,0.7l-3.9-3.9
		l-2-6.7L18.2,7.3z M13,19.9c-0.2-1,0.4-2,1.4-2.2c0.6-0.2,1.1-0.1,1.6,0.2c0,0,0,0-0.1,0c-0.6,0-1.2,0.2-1.6,0.7L13,19.9z
		 M4.4,13.2l0.7-0.7l1,3.6l-2.3-2.3L4.4,13.2z M3.7,15.2l7,7h0l-0.1,0.1l0,0l-6.9,6.9V15.2z M4.6,29.9l0.6-0.6h0l10-10
		c0.5-0.5,1.3-0.5,1.8,0l10.5,10.5H4.6z M28.3,15.6v13.6l-7-7l7-7V15.6z"/>
	<polygon points="8.9,14.6 8,11.8 7.1,12 7.9,14.9 	"/>
	<polygon points="18.5,11.9 17.7,9 16.7,9.3 17.5,12.2 	"/>
</g>
</svg>
