<?xml version="1.0" encoding="UTF-8" standalone="no"?>
<svg
   xmlns:dc="http://purl.org/dc/elements/1.1/"
   xmlns:cc="http://creativecommons.org/ns#"
   xmlns:rdf="http://www.w3.org/1999/02/22-rdf-syntax-ns#"
   xmlns:svg="http://www.w3.org/2000/svg"
   xmlns="http://www.w3.org/2000/svg"
   xmlns:sodipodi="http://sodipodi.sourceforge.net/DTD/sodipodi-0.dtd"
   xmlns:inkscape="http://www.inkscape.org/namespaces/inkscape"
   version="1.1"
   id="svg1567"
   x="0"
   y="0"
   viewBox="0 0 256 256"
   xml:space="preserve"
   sodipodi:docname="envelope-icon-circle.svg"
   width="256"
   height="256"
   inkscape:version="0.92.4 (5da689c313, 2019-01-14)"><metadata
   id="metadata4584"><rdf:RDF><cc:Work
       rdf:about=""><dc:format>image/svg+xml</dc:format><dc:type
         rdf:resource="http://purl.org/dc/dcmitype/StillImage" /><dc:title /></cc:Work></rdf:RDF></metadata><defs
   id="defs4582" /><sodipodi:namedview
   pagecolor="#ffffff"
   bordercolor="#666666"
   borderopacity="1"
   objecttolerance="10"
   gridtolerance="10"
   guidetolerance="10"
   inkscape:pageopacity="0"
   inkscape:pageshadow="2"
   inkscape:window-width="3840"
   inkscape:window-height="2066"
   id="namedview4580"
   showgrid="false"
   inkscape:zoom="1.7998047"
   inkscape:cx="282.44781"
   inkscape:cy="108.28604"
   inkscape:window-x="-11"
   inkscape:window-y="-11"
   inkscape:window-maximized="1"
   inkscape:current-layer="g4589" />
  
  
  <circle
   style="opacity:1;fill:#65dfb0;fill-opacity:1;stroke:none;stroke-width:1;stroke-miterlimit:4;stroke-dasharray:none;stroke-opacity:1"
   id="path4591"
   cx="128"
   cy="128"
   r="128" /><g
   id="g4589"
   transform="matrix(6.2491868,0,0,6.2491868,28.325472,-1385.2152)"
   style="stroke-width:0.16002083"><path
     inkscape:connector-curvature="0"
     id="path4573"
     d="m 29.2,237.3 v 0 l -5.7,-5.7 -1.9,-6.4 -3.5,1 -0.5,-0.5 c -0.4,-0.4 -1,-0.7 -1.6,-0.7 -0.6,0 -1.2,0.2 -1.6,0.7 l -2.1,2.1 -5.1,1.5 0.3,1 13.5,-3.8 4.2,14.3 -0.8,0.8 -4.1,-13.9 -14.5,4.1 0.3,1 13.5,-3.8 3.9,13.5 -0.8,0.8 -3.8,-13.2 -14.5,4.1 0.3,1.2 -2.1,2.1 V 255 H 29.3 Z M 15.1,226.5 c 0.5,-0.5 1.3,-0.5 1.8,0 v 0 l -2.6,0.7 z m 9,7.3 4,4 -2.2,2.2 z m -5.9,-2.5 3.7,12.7 -1.4,1.4 -2.6,-2.6 c 0,0 0,-0.1 0,-0.1 -0.5,-1.6 -2.1,-2.5 -3.7,-2 -1.6,0.5 -2.5,2.1 -2.1,3.7 0,0.1 0.1,0.2 0.1,0.3 l -0.7,0.7 -3.9,-3.9 -2,-6.7 z M 13,243.9 c -0.2,-1 0.4,-2 1.4,-2.2 0.6,-0.2 1.1,-0.1 1.6,0.2 0,0 0,0 -0.1,0 -0.6,0 -1.2,0.2 -1.6,0.7 z m -8.6,-6.7 0.7,-0.7 1,3.6 -2.3,-2.3 z m -0.7,2 7,7 v 0 l -0.1,0.1 v 0 l -6.9,6.9 z m 0.9,14.7 0.6,-0.6 v 0 l 10,-10 c 0.5,-0.5 1.3,-0.5 1.8,0 l 10.5,10.5 H 4.6 Z m 23.7,-14.3 v 13.6 l -7,-7 7,-7 z"
     style="fill:#ffffff;fill-opacity:1;stroke-width:0.16002083" /><polygon
     transform="translate(0,224)"
     id="polygon4575"
     points="7.1,12 7.9,14.9 8.9,14.6 8,11.8 "
     style="stroke-width:0.16002083;fill:#ffffff;fill-opacity:1" /><polygon
     transform="translate(0,224)"
     id="polygon4577"
     points="16.7,9.3 17.5,12.2 18.5,11.9 17.7,9 "
     style="stroke-width:0.16002083;fill:#ffffff;fill-opacity:1" /></g>
</svg>