<?xml version="1.0" encoding="UTF-8" standalone="no"?>
<!-- Generated by IcoMoon.io -->

<svg
   xmlns:dc="http://purl.org/dc/elements/1.1/"
   xmlns:cc="http://creativecommons.org/ns#"
   xmlns:rdf="http://www.w3.org/1999/02/22-rdf-syntax-ns#"
   xmlns:svg="http://www.w3.org/2000/svg"
   xmlns="http://www.w3.org/2000/svg"
   xmlns:sodipodi="http://sodipodi.sourceforge.net/DTD/sodipodi-0.dtd"
   xmlns:inkscape="http://www.inkscape.org/namespaces/inkscape"
   version="1.1"
   width="32"
   height="32"
   viewBox="0 0 32 32"
   id="svg1567"
   sodipodi:docname="envelope-icon.svg"
   inkscape:version="0.92.4 (5da689c313, 2019-01-14)">
  <metadata
     id="metadata1573">
    <rdf:RDF>
      <cc:Work
         rdf:about="">
        <dc:format>image/svg+xml</dc:format>
        <dc:type
           rdf:resource="http://purl.org/dc/dcmitype/StillImage" />
      </cc:Work>
    </rdf:RDF>
  </metadata>
  <defs
     id="defs1571" />
  <sodipodi:namedview
     pagecolor="#ffffff"
     bordercolor="#666666"
     borderopacity="1"
     objecttolerance="10"
     gridtolerance="10"
     guidetolerance="10"
     inkscape:pageopacity="0"
     inkscape:pageshadow="2"
     inkscape:window-width="3706"
     inkscape:window-height="1993"
     id="namedview1569"
     showgrid="false"
     inkscape:zoom="41.7193"
     inkscape:cx="21.014111"
     inkscape:cy="18.062412"
     inkscape:window-x="0"
     inkscape:window-y="0"
     inkscape:window-maximized="0"
     inkscape:current-layer="g2162" />
  <g
     id="g2162">
    <path
       id="path1565"
       d="M 29.229,13.342 17.633,1.747 C 17.197,1.311 16.617,1.07 16,1.07 c -0.617,0 -1.197,0.24 -1.633,0.677 L 2.672,13.44 V 30.931 H 29.328 V 13.442 L 29.229,13.343 Z M 4.38,13.24 15.121,2.5 c 0.47,-0.47 1.289,-0.47 1.759,0 l 11.246,11.247 -7.664,7.664 -2.829,-2.829 C 17.197,18.146 16.617,17.905 16,17.905 c -0.617,0 -1.197,0.241 -1.633,0.677 l -2.871,2.87 -7.664,-7.664 z m 6.362,8.965 -0.079,0.08 -10e-4,-0.001 -6.923,6.923 V 15.202 l 7.004,7.003 z m -6.153,7.659 0.573,-0.573 h 0.002 l 9.957,-9.956 c 0.47,-0.47 1.289,-0.47 1.759,0 L 27.411,29.864 Z M 28.262,15.57 v 13.638 l -7.046,-7.043 7.046,-7.046 z"
       inkscape:connector-curvature="0"
       style="fill:#000000" />
  </g>
  <g
     id="g2156"
     transform="matrix(0.88762308,-0.35486683,0.35975155,0.87557089,17.812038,-2.1506715)"
     style="stroke-width:1.05126917">
    <g
       id="g1475"
       transform="matrix(-0.10349654,0.99551838,0.99352878,0.10554784,-23.439819,2.0483977)"
       style="stroke-width:1.05126917">
      <path
         style="fill:#000000;stroke-width:1.05126917"
         inkscape:connector-curvature="0"
         d="m 16.784,10.755 c -1.737,0 -3.147,1.409 -3.147,3.147 0,1.738 1.41,3.148 3.147,3.148 1.739,0 3.147,-1.409 3.147,-3.148 0,-1.739 -1.409,-3.147 -3.147,-3.147 z m 0,5.245 c -1.156,0 -2.098,-0.941 -2.098,-2.099 0,-1.158 0.941,-2.098 2.098,-2.098 1.158,0 2.098,0.941 2.098,2.098 0,1.157 -0.941,2.099 -2.098,2.099 z"
         id="path899" />
      <path
         style="fill:#000000;stroke-width:1.05126917"
         inkscape:connector-curvature="0"
         d="M 4.196,6.034 V 21.769 H 29.372 V 6.034 Z M 28.324,9.583 V 20.72 H 5.246 V 7.083 h 23.078 z"
         id="path901" />
      <path
         style="fill:#000000;stroke-width:1.05126917"
         inkscape:connector-curvature="0"
         d="M 23.746,22.819 H 3.147 V 8.133 H 2.098 v 15.735 h 25.177 v -1.049 h -1.049 z"
         id="path903" />
      <path
         style="fill:#000000;stroke-width:1.05126917"
         inkscape:connector-curvature="0"
         d="M 21.648,24.917 H 1.049 V 10.231 H 0 v 15.735 h 25.177 v -1.049 h -1.049 z"
         id="path905" />
      <path
         style="fill:#000000;stroke-width:1.05126917"
         inkscape:connector-curvature="0"
         d="M 6.819,8.165 H 9.966 V 9.214 H 6.819 Z"
         id="path907" />
      <path
         style="fill:#000000;stroke-width:1.05126917"
         inkscape:connector-curvature="0"
         d="m 6.819,18.623 h 3.147 v 1.049 H 6.819 Z"
         id="path909" />
      <path
         style="fill:#000000;stroke-width:1.05126917"
         inkscape:connector-curvature="0"
         d="M 23.603,8.165 H 26.75 V 9.214 H 23.603 Z"
         id="path911" />
      <path
         style="fill:#000000;stroke-width:1.05126917"
         inkscape:connector-curvature="0"
         d="m 23.603,18.623 h 3.147 v 1.049 h -3.147 z"
         id="path913" />
    </g>
  </g>
</svg>
